<mxfile host="app.diagrams.net" modified="2021-01-29T08:04:27.053Z" agent="5.0 (Macintosh; Intel Mac OS X 11_1_0) AppleWebKit/537.36 (KHTML, like Gecko) Chrome/88.0.4324.96 Safari/537.36" etag="K5dgC_5uXsIrdJd2OAUA" version="13.6.9" type="github">
  <diagram id="sNnn83Og7q10_t2zeyPj" name="Page-1">
    <mxGraphModel dx="788" dy="512" grid="1" gridSize="10" guides="1" tooltips="1" connect="1" arrows="1" fold="1" page="1" pageScale="1" pageWidth="850" pageHeight="1100" math="0" shadow="0">
      <root>
        <mxCell id="0" />
        <mxCell id="1" parent="0" />
        <mxCell id="ePQjQ2yINknDeUrTwRYu-1" value="CreateTransaction Screen" style="rounded=0;whiteSpace=wrap;html=1;" vertex="1" parent="1">
          <mxGeometry x="80" y="130" width="120" height="60" as="geometry" />
        </mxCell>
        <mxCell id="ePQjQ2yINknDeUrTwRYu-2" value="Transaction Bloc" style="ellipse;whiteSpace=wrap;html=1;" vertex="1" parent="1">
          <mxGeometry x="410" y="120" width="120" height="80" as="geometry" />
        </mxCell>
        <mxCell id="ePQjQ2yINknDeUrTwRYu-3" value="" style="endArrow=none;dashed=1;html=1;entryX=0.5;entryY=1;entryDx=0;entryDy=0;" edge="1" parent="1" source="ePQjQ2yINknDeUrTwRYu-10" target="ePQjQ2yINknDeUrTwRYu-2">
          <mxGeometry width="50" height="50" relative="1" as="geometry">
            <mxPoint x="470" y="630" as="sourcePoint" />
            <mxPoint x="390" y="210" as="targetPoint" />
          </mxGeometry>
        </mxCell>
        <mxCell id="ePQjQ2yINknDeUrTwRYu-4" value="" style="endArrow=none;dashed=1;html=1;entryX=0.5;entryY=1;entryDx=0;entryDy=0;" edge="1" parent="1" source="ePQjQ2yINknDeUrTwRYu-6" target="ePQjQ2yINknDeUrTwRYu-1">
          <mxGeometry width="50" height="50" relative="1" as="geometry">
            <mxPoint x="140" y="690" as="sourcePoint" />
            <mxPoint x="420" y="210" as="targetPoint" />
          </mxGeometry>
        </mxCell>
        <mxCell id="ePQjQ2yINknDeUrTwRYu-5" value="" style="html=1;points=[];perimeter=orthogonalPerimeter;" vertex="1" parent="1">
          <mxGeometry x="465" y="250" width="10" height="80" as="geometry" />
        </mxCell>
        <mxCell id="ePQjQ2yINknDeUrTwRYu-6" value="" style="html=1;points=[];perimeter=orthogonalPerimeter;" vertex="1" parent="1">
          <mxGeometry x="135" y="250" width="10" height="890" as="geometry" />
        </mxCell>
        <mxCell id="ePQjQ2yINknDeUrTwRYu-8" value="dispatch&lt;br&gt;FetchTransactionFee()" style="html=1;verticalAlign=bottom;endArrow=block;entryX=-0.133;entryY=-0.004;entryDx=0;entryDy=0;entryPerimeter=0;" edge="1" parent="1" target="ePQjQ2yINknDeUrTwRYu-5">
          <mxGeometry width="80" relative="1" as="geometry">
            <mxPoint x="145" y="250" as="sourcePoint" />
            <mxPoint x="225" y="250" as="targetPoint" />
          </mxGeometry>
        </mxCell>
        <mxCell id="ePQjQ2yINknDeUrTwRYu-9" value="dispatch&lt;br&gt;UpdateTransactionFee(&amp;lt;Fee&amp;gt;)" style="html=1;verticalAlign=bottom;endArrow=block;exitX=0.033;exitY=0.954;exitDx=0;exitDy=0;exitPerimeter=0;" edge="1" parent="1" source="ePQjQ2yINknDeUrTwRYu-5">
          <mxGeometry width="80" relative="1" as="geometry">
            <mxPoint x="460" y="331" as="sourcePoint" />
            <mxPoint x="146" y="326" as="targetPoint" />
          </mxGeometry>
        </mxCell>
        <mxCell id="ePQjQ2yINknDeUrTwRYu-10" value="" style="html=1;points=[];perimeter=orthogonalPerimeter;" vertex="1" parent="1">
          <mxGeometry x="465" y="390" width="10" height="80" as="geometry" />
        </mxCell>
        <mxCell id="ePQjQ2yINknDeUrTwRYu-11" value="" style="endArrow=none;dashed=1;html=1;entryX=0.5;entryY=1;entryDx=0;entryDy=0;" edge="1" parent="1" source="ePQjQ2yINknDeUrTwRYu-14" target="ePQjQ2yINknDeUrTwRYu-10">
          <mxGeometry width="50" height="50" relative="1" as="geometry">
            <mxPoint x="470" y="760" as="sourcePoint" />
            <mxPoint x="470" y="200" as="targetPoint" />
          </mxGeometry>
        </mxCell>
        <mxCell id="ePQjQ2yINknDeUrTwRYu-12" value="dispatch&lt;br&gt;UpdateTransactionFee(&amp;lt;Fee&amp;gt;)" style="html=1;verticalAlign=bottom;endArrow=block;exitX=0.117;exitY=0.944;exitDx=0;exitDy=0;exitPerimeter=0;" edge="1" parent="1" source="ePQjQ2yINknDeUrTwRYu-10">
          <mxGeometry width="80" relative="1" as="geometry">
            <mxPoint x="475.3299999999999" y="336.31999999999994" as="sourcePoint" />
            <mxPoint x="150" y="466" as="targetPoint" />
          </mxGeometry>
        </mxCell>
        <mxCell id="ePQjQ2yINknDeUrTwRYu-13" value="InputAddress" style="html=1;verticalAlign=bottom;endArrow=block;" edge="1" parent="1">
          <mxGeometry width="80" relative="1" as="geometry">
            <mxPoint x="150" y="520" as="sourcePoint" />
            <mxPoint x="460" y="520" as="targetPoint" />
          </mxGeometry>
        </mxCell>
        <mxCell id="ePQjQ2yINknDeUrTwRYu-14" value="" style="html=1;points=[];perimeter=orthogonalPerimeter;" vertex="1" parent="1">
          <mxGeometry x="465" y="520" width="10" height="80" as="geometry" />
        </mxCell>
        <mxCell id="ePQjQ2yINknDeUrTwRYu-15" value="" style="endArrow=none;dashed=1;html=1;entryX=0.5;entryY=1;entryDx=0;entryDy=0;" edge="1" parent="1" source="ePQjQ2yINknDeUrTwRYu-16" target="ePQjQ2yINknDeUrTwRYu-14">
          <mxGeometry width="50" height="50" relative="1" as="geometry">
            <mxPoint x="470" y="1197.5" as="sourcePoint" />
            <mxPoint x="470" y="469.9999999999999" as="targetPoint" />
          </mxGeometry>
        </mxCell>
        <mxCell id="ePQjQ2yINknDeUrTwRYu-16" value="" style="html=1;points=[];perimeter=orthogonalPerimeter;" vertex="1" parent="1">
          <mxGeometry x="465" y="670" width="10" height="80" as="geometry" />
        </mxCell>
        <mxCell id="ePQjQ2yINknDeUrTwRYu-17" value="" style="endArrow=none;dashed=1;html=1;entryX=0.5;entryY=1;entryDx=0;entryDy=0;" edge="1" parent="1" source="ePQjQ2yINknDeUrTwRYu-18" target="ePQjQ2yINknDeUrTwRYu-16">
          <mxGeometry width="50" height="50" relative="1" as="geometry">
            <mxPoint x="470" y="1197.5000000000002" as="sourcePoint" />
            <mxPoint x="470" y="600" as="targetPoint" />
          </mxGeometry>
        </mxCell>
        <mxCell id="ePQjQ2yINknDeUrTwRYu-18" value="" style="html=1;points=[];perimeter=orthogonalPerimeter;" vertex="1" parent="1">
          <mxGeometry x="465" y="820" width="10" height="80" as="geometry" />
        </mxCell>
        <mxCell id="ePQjQ2yINknDeUrTwRYu-19" value="" style="endArrow=none;dashed=1;html=1;entryX=0.5;entryY=1;entryDx=0;entryDy=0;" edge="1" parent="1" source="ePQjQ2yINknDeUrTwRYu-20" target="ePQjQ2yINknDeUrTwRYu-18">
          <mxGeometry width="50" height="50" relative="1" as="geometry">
            <mxPoint x="470" y="1197.5000000000002" as="sourcePoint" />
            <mxPoint x="470" y="750" as="targetPoint" />
          </mxGeometry>
        </mxCell>
        <mxCell id="ePQjQ2yINknDeUrTwRYu-20" value="" style="html=1;points=[];perimeter=orthogonalPerimeter;" vertex="1" parent="1">
          <mxGeometry x="465" y="960" width="10" height="140" as="geometry" />
        </mxCell>
        <mxCell id="ePQjQ2yINknDeUrTwRYu-21" value="" style="endArrow=none;dashed=1;html=1;entryX=0.5;entryY=1;entryDx=0;entryDy=0;" edge="1" parent="1" target="ePQjQ2yINknDeUrTwRYu-20">
          <mxGeometry width="50" height="50" relative="1" as="geometry">
            <mxPoint x="470" y="1197.5000000000002" as="sourcePoint" />
            <mxPoint x="470" y="900" as="targetPoint" />
          </mxGeometry>
        </mxCell>
        <mxCell id="ePQjQ2yINknDeUrTwRYu-22" value="InputAmount" style="html=1;verticalAlign=bottom;endArrow=block;" edge="1" parent="1">
          <mxGeometry width="80" relative="1" as="geometry">
            <mxPoint x="155" y="670" as="sourcePoint" />
            <mxPoint x="465" y="670" as="targetPoint" />
          </mxGeometry>
        </mxCell>
        <mxCell id="ePQjQ2yINknDeUrTwRYu-23" value="" style="endArrow=none;dashed=1;html=1;entryX=0.45;entryY=1.001;entryDx=0;entryDy=0;entryPerimeter=0;" edge="1" parent="1" target="ePQjQ2yINknDeUrTwRYu-6">
          <mxGeometry width="50" height="50" relative="1" as="geometry">
            <mxPoint x="139.57999999999998" y="1207.5000000000002" as="sourcePoint" />
            <mxPoint x="140" y="1140" as="targetPoint" />
          </mxGeometry>
        </mxCell>
        <mxCell id="ePQjQ2yINknDeUrTwRYu-24" value="ChoiceFee/ InputFee" style="html=1;verticalAlign=bottom;endArrow=block;" edge="1" parent="1">
          <mxGeometry width="80" relative="1" as="geometry">
            <mxPoint x="155" y="830" as="sourcePoint" />
            <mxPoint x="465" y="830" as="targetPoint" />
          </mxGeometry>
        </mxCell>
        <mxCell id="ePQjQ2yINknDeUrTwRYu-25" value="dispatch&lt;br&gt;CreateTransaction()" style="html=1;verticalAlign=bottom;endArrow=block;" edge="1" parent="1">
          <mxGeometry width="80" relative="1" as="geometry">
            <mxPoint x="155" y="970" as="sourcePoint" />
            <mxPoint x="465" y="970" as="targetPoint" />
          </mxGeometry>
        </mxCell>
        <mxCell id="ePQjQ2yINknDeUrTwRYu-26" value="ValidAddress" style="html=1;verticalAlign=bottom;endArrow=block;exitX=0.117;exitY=0.944;exitDx=0;exitDy=0;exitPerimeter=0;" edge="1" parent="1">
          <mxGeometry width="80" relative="1" as="geometry">
            <mxPoint x="465.00000000000006" y="590" as="sourcePoint" />
            <mxPoint x="148.83" y="590.48" as="targetPoint" />
          </mxGeometry>
        </mxCell>
        <mxCell id="ePQjQ2yINknDeUrTwRYu-27" value="ValidAmount" style="html=1;verticalAlign=bottom;endArrow=block;exitX=0.117;exitY=0.944;exitDx=0;exitDy=0;exitPerimeter=0;" edge="1" parent="1">
          <mxGeometry width="80" relative="1" as="geometry">
            <mxPoint x="461.17" y="740" as="sourcePoint" />
            <mxPoint x="144.99999999999991" y="740.48" as="targetPoint" />
          </mxGeometry>
        </mxCell>
        <mxCell id="ePQjQ2yINknDeUrTwRYu-28" value="ValidAmount" style="html=1;verticalAlign=bottom;endArrow=block;exitX=0.117;exitY=0.944;exitDx=0;exitDy=0;exitPerimeter=0;" edge="1" parent="1">
          <mxGeometry width="80" relative="1" as="geometry">
            <mxPoint x="465.00000000000006" y="890" as="sourcePoint" />
            <mxPoint x="148.83" y="890.48" as="targetPoint" />
          </mxGeometry>
        </mxCell>
        <mxCell id="ePQjQ2yINknDeUrTwRYu-29" value="TransactionSent" style="html=1;verticalAlign=bottom;endArrow=block;exitX=0.117;exitY=0.944;exitDx=0;exitDy=0;exitPerimeter=0;" edge="1" parent="1">
          <mxGeometry width="80" relative="1" as="geometry">
            <mxPoint x="465" y="1080" as="sourcePoint" />
            <mxPoint x="148.82999999999993" y="1080.48" as="targetPoint" />
          </mxGeometry>
        </mxCell>
        <mxCell id="ePQjQ2yINknDeUrTwRYu-31" value="Navigator.of(context).pop()" style="edgeStyle=orthogonalEdgeStyle;html=1;align=left;spacingLeft=2;endArrow=block;rounded=0;entryX=1;entryY=0;" edge="1" parent="1">
          <mxGeometry relative="1" as="geometry">
            <mxPoint x="145" y="1120" as="sourcePoint" />
            <Array as="points">
              <mxPoint x="170" y="1120" />
            </Array>
            <mxPoint x="150" y="1140" as="targetPoint" />
          </mxGeometry>
        </mxCell>
        <mxCell id="ePQjQ2yINknDeUrTwRYu-32" value="prepareTransaction" style="edgeStyle=orthogonalEdgeStyle;html=1;align=left;spacingLeft=2;endArrow=block;rounded=0;entryX=1;entryY=0;" edge="1" parent="1">
          <mxGeometry relative="1" as="geometry">
            <mxPoint x="475" y="990" as="sourcePoint" />
            <Array as="points">
              <mxPoint x="500" y="990" />
            </Array>
            <mxPoint x="480" y="1010" as="targetPoint" />
          </mxGeometry>
        </mxCell>
        <mxCell id="ePQjQ2yINknDeUrTwRYu-33" value="publishTransaction" style="edgeStyle=orthogonalEdgeStyle;html=1;align=left;spacingLeft=2;endArrow=block;rounded=0;entryX=1;entryY=0;" edge="1" parent="1">
          <mxGeometry relative="1" as="geometry">
            <mxPoint x="475" y="1040" as="sourcePoint" />
            <Array as="points">
              <mxPoint x="500" y="1040" />
            </Array>
            <mxPoint x="480" y="1060" as="targetPoint" />
          </mxGeometry>
        </mxCell>
      </root>
    </mxGraphModel>
  </diagram>
</mxfile>
